<svg width="20" height="20" viewBox="0 0 20 20" fill="none" xmlns="http://www.w3.org/2000/svg">
<path d="M5.81641 19.4629C6.31738 19.4629 6.68652 19.2168 7.29297 18.6807L10.3076 16.0264H15.5986C18.2441 16.0264 19.7295 14.4971 19.7295 11.8867V5.05762C19.7295 2.44727 18.2441 0.917969 15.5986 0.917969H4.39258C1.75586 0.917969 0.261719 2.44727 0.261719 5.05762V11.8867C0.261719 14.5059 1.7998 16.0264 4.33105 16.0264H4.69141V18.1797C4.69141 18.9619 5.10449 19.4629 5.81641 19.4629ZM6.25586 17.4941V14.9893C6.25586 14.4707 6.02734 14.2686 5.53516 14.2686H4.4541C2.80176 14.2686 2.01074 13.4336 2.01074 11.834V5.11035C2.01074 3.51074 2.80176 2.67578 4.4541 2.67578H15.5459C17.1895 2.67578 17.9805 3.51074 17.9805 5.11035V11.834C17.9805 13.4336 17.1895 14.2686 15.5459 14.2686H10.2109C9.6748 14.2686 9.41113 14.3564 9.04199 14.7432L6.25586 17.4941ZM5.52637 6.17383H14.377C14.6758 6.17383 14.9219 5.92773 14.9219 5.62012C14.9219 5.32129 14.6758 5.0752 14.377 5.0752H5.52637C5.22754 5.0752 4.99023 5.32129 4.99023 5.62012C4.99023 5.92773 5.22754 6.17383 5.52637 6.17383ZM5.52637 8.96875H14.377C14.6758 8.96875 14.9219 8.71387 14.9219 8.40625C14.9219 8.11621 14.6758 7.86133 14.377 7.86133H5.52637C5.22754 7.86133 4.99023 8.11621 4.99023 8.40625C4.99023 8.71387 5.22754 8.96875 5.52637 8.96875ZM5.52637 11.7549H11.292C11.5996 11.7549 11.8369 11.5088 11.8369 11.21C11.8369 10.9023 11.5996 10.6562 11.292 10.6562H5.52637C5.22754 10.6562 4.99023 10.9023 4.99023 11.21C4.99023 11.5088 5.22754 11.7549 5.52637 11.7549Z" fill="#1C1C1E"/>
</svg>
