<svg width="18" height="19" viewBox="0 0 18 19" fill="none" xmlns="http://www.w3.org/2000/svg">
<path d="M8.99121 2.88672C9.59766 2.88672 10.0986 2.38574 10.0986 1.78809C10.0986 1.18164 9.59766 0.689453 8.99121 0.689453C8.38477 0.689453 7.89258 1.17285 7.89258 1.78809C7.89258 2.38574 8.40234 2.88672 8.99121 2.88672ZM13.7812 4.87305C14.2031 5.29492 14.915 5.29492 15.3369 4.87305C15.7764 4.44238 15.7764 3.74805 15.3369 3.31738C14.8975 2.87793 14.2207 2.87793 13.7812 3.31738C13.3594 3.73926 13.3594 4.45117 13.7812 4.87305ZM2.64551 4.88184C3.06738 5.30371 3.7793 5.30371 4.20117 4.88184C4.64062 4.43359 4.64062 3.76562 4.20117 3.32617C3.77051 2.88672 3.07617 2.88672 2.64551 3.32617C2.22363 3.74805 2.22363 4.45117 2.64551 4.88184ZM8.99121 14.2773C11.5137 14.2773 13.5967 12.1943 13.5967 9.67188C13.5967 7.1582 11.5137 5.0752 8.99121 5.0752C6.47754 5.0752 4.39453 7.1582 4.39453 9.67188C4.39453 12.1943 6.47754 14.2773 8.99121 14.2773ZM8.99121 12.6338C7.38281 12.6338 6.03809 11.2891 6.03809 9.67188C6.03809 8.07227 7.38281 6.71875 8.99121 6.71875C10.6084 6.71875 11.9531 8.06348 11.9531 9.67188C11.9531 11.2891 10.6084 12.6338 8.99121 12.6338ZM1.125 10.7705C1.72266 10.7705 2.22363 10.2607 2.22363 9.67188C2.22363 9.05664 1.74023 8.56445 1.125 8.56445C0.518555 8.56445 0.0263672 9.06543 0.0263672 9.67188C0.0263672 10.2695 0.527344 10.7705 1.125 10.7705ZM16.8662 10.8145C17.4814 10.8145 17.9648 10.3311 17.9648 9.71582C17.9648 9.12695 17.4639 8.61719 16.8662 8.61719C16.2598 8.61719 15.7676 9.11816 15.7676 9.71582C15.7676 10.3223 16.2598 10.8145 16.8662 10.8145ZM2.6543 16C3.08496 16.4395 3.7793 16.4395 4.20996 16C4.63184 15.5781 4.63184 14.875 4.20996 14.4443C3.78809 14.0225 3.07617 14.0225 2.6543 14.4443C2.21484 14.8838 2.21484 15.5693 2.6543 16ZM13.7373 16.0439C14.1855 16.4746 14.8535 16.4746 15.3018 16.0439C15.7236 15.6221 15.7236 14.9102 15.3018 14.4883C14.8623 14.0576 14.168 14.0576 13.7373 14.4883C13.3066 14.9189 13.3066 15.6133 13.7373 16.0439ZM8.99121 18.6279C9.59766 18.6279 10.0986 18.1357 10.0986 17.5293C10.0986 16.9316 9.59766 16.4307 8.99121 16.4307C8.40234 16.4307 7.89258 16.9316 7.89258 17.5293C7.89258 18.1445 8.38477 18.6279 8.99121 18.6279Z" fill="#1C1C1E"/>
</svg>
